<?xml version="1.0" encoding="iso-8859-1"?>
<svg version="1.1" id="Layer_1"
  xmlns="http://www.w3.org/2000/svg"
  xmlns:xlink="http://www.w3.org/1999/xlink" x="0px" y="0px" viewBox="0 0 512 512" style="enable-background:new 0 0 512 512;" xml:space="preserve">
  <path style="fill:#FFCE7F;" d="M360.73,80.235c0,0-19.334,24.071-38.288,60.916C303.203,66.801,256.105,8.17,256.105,8.17
	s-47.099,58.631-66.337,132.981c-18.953-36.845-38.287-60.916-38.287-60.916s-73.654,91.613-74.425,191.027
	c0,98.858,80.089,178.997,178.946,178.997s179.101-80.14,179.101-178.997C434.331,171.848,360.73,80.235,360.73,80.235z"/>
  <path style="fill:#FB5E52;" d="M322.338,184.018c0,0-12.502,15.193-24.464,38.45c-12.145-46.93-41.873-83.939-41.873-83.939
	s-29.729,37.008-41.871,83.938c-11.963-23.257-24.465-38.45-24.465-38.45s-46.161,57.827-46.648,120.577
	c0,62.399,50.586,112.983,112.984,112.983s112.984-50.585,112.984-112.983C368.499,241.844,322.338,184.018,322.338,184.018z"/>
  <path style="fill:#147391;" d="M387.566,411.042c-7.682,0-15.143,0.94-22.282,2.701c-0.051-0.199-0.113-0.393-0.164-0.593H146.884
	c-0.052,0.199-0.113,0.393-0.164,0.593c-7.139-1.76-14.6-2.701-22.282-2.701c-51.245,0-92.787,41.542-92.787,92.787h448.704
	C480.352,452.584,438.812,411.042,387.566,411.042z"/>
  <path style="fill:#FF857F;" d="M345.657,373.345H166.346c-8.927,11.688-15.638,25.161-19.463,39.805
	c30.208,23.264,68.043,37.109,109.118,37.109s78.912-13.846,109.118-37.109C361.294,398.505,354.585,385.033,345.657,373.345z"/>
  <path style="fill:#F73725;" d="M256.002,328.946c-36.569,0-69.052,17.42-89.656,44.398c20.652,26.893,53.127,44.234,89.656,44.234
	s69.003-17.34,89.656-44.234C325.054,346.366,292.57,328.946,256.002,328.946z"/>
  <path d="M387.566,402.872c-5.547,0-11.082,0.455-16.538,1.355c-16.082-49.508-62.317-83.452-115.028-83.452
	s-98.946,33.943-115.028,83.452c-5.456-0.901-10.991-1.355-16.538-1.355c-55.669,0-100.958,45.289-100.958,100.958
	c0,4.512,3.657,8.17,8.17,8.17s8.17-3.658,8.17-8.17c0-46.658,37.96-84.617,84.617-84.617c6.861,0,13.7,0.829,20.327,2.463
	c4.351,1.07,8.762-1.564,9.872-5.912c11.824-46.307,53.507-78.648,101.366-78.648s89.541,32.341,101.366,78.648
	c1.109,4.348,5.519,6.983,9.871,5.912c6.628-1.634,13.467-2.463,20.327-2.463c46.657,0,84.617,37.959,84.617,84.617
	c0,4.512,3.657,8.17,8.17,8.17c4.513,0,8.17-3.658,8.17-8.17C488.524,448.161,443.235,402.872,387.566,402.872z"/>
  <path d="M388.997,459.878c-4.805,0-8.715,3.91-8.715,8.715c0,4.805,3.91,8.715,8.715,8.715c4.805,0,8.715-3.91,8.715-8.715
	C397.712,463.788,393.803,459.878,388.997,459.878z"/>
  <path d="M212.961,393.48c0-4.805-3.91-8.715-8.715-8.715c-4.805,0-8.715,3.91-8.715,8.715c0,4.805,3.91,8.715,8.715,8.715
	C209.051,402.194,212.961,398.285,212.961,393.48z"/>
  <path d="M235.375,369.417c0-4.805-3.91-8.715-8.715-8.715c-4.805,0-8.715,3.91-8.715,8.715c0,4.805,3.91,8.715,8.715,8.715
	C231.466,378.132,235.375,374.222,235.375,369.417z"/>
  <path d="M117.987,385.407c3.605-2.716,4.324-7.839,1.608-11.442c-22.45-29.79-34.316-65.304-34.316-102.64
	c0.607-78.241,48.626-152.73,66.214-177.409c7.116,9.952,19.186,27.984,31.012,50.971c1.55,3.014,4.81,4.755,8.169,4.382
	c3.369-0.376,6.156-2.792,7.006-6.073c14.373-55.55,45.108-102.678,58.427-121.342c13.32,18.665,44.054,65.792,58.427,121.342
	c0.849,3.281,3.636,5.697,7.006,6.073c3.366,0.37,6.618-1.369,8.169-4.382c11.825-22.988,23.896-41.02,31.013-50.971
	c17.592,24.684,65.607,99.162,66.214,177.346c0,37.406-11.871,72.926-34.329,102.719c-2.716,3.604-1.997,8.726,1.607,11.443
	c1.474,1.11,3.198,1.646,4.912,1.646c2.477,0,4.924-1.122,6.531-3.253c24.612-32.65,37.62-71.572,37.62-112.619
	c-0.412-52.988-21.114-103.487-38.408-136.52c-18.653-35.626-36.996-58.6-37.767-59.561c-1.551-1.93-3.893-3.053-6.37-3.053
	s-4.819,1.123-6.371,3.053c-0.674,0.84-14.137,17.705-29.654,44.766C303.148,54.179,264.271,5.29,262.474,3.053
	C260.924,1.123,258.581,0,256.105,0c-2.476,0-4.819,1.123-6.369,3.053c-1.796,2.236-40.675,51.125-62.232,116.831
	c-15.517-27.061-28.978-43.926-29.652-44.766c-1.551-1.93-3.893-3.053-6.371-3.053c-2.475,0-4.818,1.123-6.369,3.053
	c-0.772,0.961-19.115,23.934-37.767,59.561c-17.295,33.034-37.997,83.533-38.408,136.583c0,40.976,13.005,79.892,37.607,112.538
	C109.26,387.403,114.384,388.122,117.987,385.407z"/>
  <path d="M332.417,424.127c-23.827,11.919-49.502,17.962-76.312,17.962c-26.878,0-52.612-6.073-76.486-18.05
	c-4.031-2.022-8.943-0.395-10.967,3.64c-2.023,4.033-0.393,8.944,3.64,10.966c26.17,13.128,54.369,19.785,83.813,19.785
	c29.37,0,57.504-6.624,83.623-19.689c4.035-2.019,5.67-6.926,3.653-10.962C341.361,423.744,336.454,422.11,332.417,424.127z"/>
  <path d="M359.776,350.309c0.909,0.325,1.837,0.478,2.748,0.478c3.355,0,6.501-2.083,7.694-5.424
	c4.671-13.076,7.041-26.793,7.041-40.833c-0.502-64.831-46.475-123.159-48.433-125.611c-1.537-1.926-3.861-3.055-6.325-3.073
	c-2.451,0.01-4.804,1.076-6.371,2.979c-0.393,0.478-7.416,9.07-15.99,23.116c-14.066-38.866-36.575-67.17-37.668-68.53
	c-1.55-1.93-3.892-3.053-6.369-3.053c-2.476,0-4.819,1.123-6.37,3.053c-1.093,1.36-23.601,29.663-37.667,68.53
	c-8.573-14.045-15.596-22.638-15.991-23.116c-1.57-1.909-3.877-3.026-6.392-2.978c-2.472,0.025-4.8,1.168-6.33,3.109
	c-0.708,0.898-17.513,22.35-31.316,53.566c-1.825,4.128,0.041,8.951,4.168,10.777c4.124,1.824,8.951-0.041,10.777-4.168
	c7.9-17.867,16.994-32.519,22.905-41.255c4.547,6.505,10.908,16.332,17.08,28.329c1.55,3.015,4.811,4.753,8.169,4.382
	c3.369-0.376,6.156-2.792,7.006-6.073c8.16-31.535,24.819-58.749,33.967-72.097c9.145,13.325,25.778,40.484,33.958,72.097
	c0.849,3.281,3.636,5.697,7.006,6.073c3.352,0.371,6.619-1.369,8.169-4.382c6.182-12.017,12.554-21.858,17.101-28.362
	c12.27,18.027,38.225,61.466,38.575,106.751c0,12.097-2.048,23.965-6.087,35.272C353.313,344.116,355.527,348.792,359.776,350.309z" />
  <path d="M150.656,258.721c-4.363-1.168-8.838,1.426-10.001,5.787c-3.685,13.805-5.605,27.271-5.704,40.086
	c0,13.913,2.349,27.572,6.981,40.597c1.191,3.347,4.338,5.435,7.697,5.435c0.909,0,1.833-0.153,2.738-0.475
	c4.252-1.512,6.472-6.184,4.961-10.436c-4.006-11.262-6.036-23.079-6.036-35.058c0.089-11.373,1.823-23.464,5.152-35.937
	C157.606,264.362,155.016,259.885,150.656,258.721z"/>
  <g>
  </g>
  <g>
  </g>
  <g>
  </g>
  <g>
  </g>
  <g>
  </g>
  <g>
  </g>
  <g>
  </g>
  <g>
  </g>
  <g>
  </g>
  <g>
  </g>
  <g>
  </g>
  <g>
  </g>
  <g>
  </g>
  <g>
  </g>
  <g>
  </g>
</svg>